<svg width="57" height="76" xmlns="http://www.w3.org/2000/svg" xmlns:xlink="http://www.w3.org/1999/xlink" xml:space="preserve" overflow="hidden"><g transform="translate(-552 -360)"><g><path d="M99.4261 81.4954C99.4261 79.5934 100.968 78.0511 102.87 78.0511L151.039 78.0511C152.941 78.0511 154.483 79.5934 154.483 81.4954L154.483 148.124C154.483 150.026 152.941 151.568 151.039 151.568L102.87 151.568C100.968 151.568 99.4261 150.026 99.4261 148.124Z" stroke="#385723" stroke-width="1.94318" stroke-linecap="butt" stroke-linejoin="miter" stroke-miterlimit="8" stroke-opacity="1" fill="#FFFFFF" fill-rule="evenodd" fill-opacity="1" transform="matrix(1 0 0 1.00285 453.545 282.701)"/><path d="M136.023 78.0511 154.483 78.0511 154.483 96.5114 136.023 96.5114Z" stroke="#FFFFFF" stroke-width="1.94318" stroke-linecap="butt" stroke-linejoin="round" stroke-miterlimit="10" stroke-opacity="1" fill="#FFFFFF" fill-rule="nonzero" fill-opacity="1" transform="matrix(1 0 0 1.00285 453.545 282.701)"/><path d="M136.023 96.5114 136.023 78.0511 154.483 96.5114Z" stroke="#385723" stroke-width="1.94318" stroke-linecap="round" stroke-linejoin="round" stroke-miterlimit="10" stroke-opacity="1" fill="#385723" fill-rule="evenodd" fill-opacity="1" transform="matrix(1 0 0 1.00285 453.545 282.701)"/><path d="M100.398 120.801 146.062 120.801 146.062 139.261 100.398 139.261Z" fill="#385723" fill-rule="nonzero" fill-opacity="1" transform="matrix(1 0 0 1.00285 453.545 282.701)"/><text fill="#FFFFFF" fill-opacity="1" font-family="Consolas,Consolas_MSFontService,sans-serif" font-style="normal" font-variant="normal" font-weight="400" font-stretch="normal" font-size="36" text-anchor="start" direction="ltr" writing-mode="lr-tb" unicode-bidi="normal" text-decoration="none" transform="matrix(0.323864 0 0 0.324786 567.102 417)">CSV</text><path d="M109.466 107.685C109.466 99.0096 116.571 91.9773 125.335 91.9773 134.1 91.9773 141.205 99.0096 141.205 107.685 141.205 116.36 134.1 123.392 125.335 123.392 116.571 123.392 109.466 116.36 109.466 107.685Z" fill="#9DC3E6" fill-rule="evenodd" fill-opacity="1" transform="matrix(1 0 0 1.00285 453.545 282.701)"/><path d="M126.38 115.288C125.763 114.671 125.763 113.67 126.38 113.053L130.85 108.583C131.467 107.966 132.467 107.966 133.085 108.583L153.199 128.697C153.816 129.315 153.816 130.315 153.199 130.932L148.729 135.402C148.112 136.019 147.111 136.019 146.494 135.402Z" fill="#9DC3E6" fill-rule="evenodd" fill-opacity="1" transform="matrix(1 0 0 1.00285 453.545 282.701)"/><path d="M114.648 107.847C114.648 101.765 119.578 96.8352 125.659 96.8352 131.741 96.8352 136.67 101.765 136.67 107.847 136.67 113.928 131.741 118.858 125.659 118.858 119.578 118.858 114.648 113.928 114.648 107.847Z" fill="#FFFFFF" fill-rule="evenodd" fill-opacity="1" transform="matrix(1 0 0 1.00285 453.545 282.701)"/></g></g></svg>